<svg width="835" height="207" viewBox="0 0 835 207" fill="none" xmlns="http://www.w3.org/2000/svg">
<path d="M31.968 2.4H0L31.104 204H78.336L109.44 2.4H80.352L56.16 166.848L31.968 2.4Z" fill="#EFE8F4"/>
<path d="M170.307 31.2H225.027V2.4H138.627V204H225.027V175.2H170.307V116.16H213.795V87.36H170.307V31.2Z" fill="#EFE8F4"/>
<path d="M326.738 204H359.282V2.4H331.058V123.072L298.514 2.4H258.77V204H287.282V57.984L326.738 204Z" fill="#EFE8F4"/>
<path d="M425.453 48.768C425.453 34.368 431.789 28.896 441.869 28.896C451.949 28.896 458.285 34.368 458.285 48.768V157.632C458.285 172.032 451.949 177.504 441.869 177.504C431.789 177.504 425.453 172.032 425.453 157.632V48.768ZM393.773 155.616C393.773 187.872 410.765 206.304 441.869 206.304C472.973 206.304 489.965 187.872 489.965 155.616V50.784C489.965 18.528 472.973 0.0960083 441.869 0.0960083C410.765 0.0960083 393.773 18.528 393.773 50.784V155.616Z" fill="#EFE8F4"/>
<path d="M568.728 2.4H524.664V204H552.312V61.44L575.928 204H605.88L627.768 59.424V204H657.72V2.4H613.656L592.056 145.536L568.728 2.4Z" fill="#EFE8F4"/>
<path d="M802.667 51.936C802.667 110.112 739.883 119.904 739.883 179.232V204H831.467V175.2H771.563C771.275 173.76 771.275 172.32 771.275 170.88C771.275 137.76 834.347 114.144 834.347 50.784C834.347 18.528 818.219 0.0960083 787.115 0.0960083C756.011 0.0960083 739.883 18.528 739.883 50.784V70.368H769.835V48.768C769.835 34.368 776.171 28.896 786.251 28.896C796.331 28.896 802.667 33.792 802.667 51.936Z" fill="#EFE8F4"/>
</svg>
